<mxfile host="app.diagrams.net" modified="2022-09-06T00:54:44.756Z" agent="5.0 (Windows NT 10.0; Win64; x64) AppleWebKit/537.36 (KHTML, like Gecko) Chrome/105.0.0.0 Safari/537.36" etag="hQxqpqf6XRHq6gTOFXIF" version="20.2.8" type="github">
  <diagram id="e61ChwSNdLdz5od8M-kF" name="PÃ¡gina-1">
    <mxGraphModel dx="446" dy="449" grid="1" gridSize="10" guides="1" tooltips="1" connect="1" arrows="1" fold="1" page="1" pageScale="1" pageWidth="850" pageHeight="1100" math="0" shadow="0">
      <root>
        <mxCell id="0" />
        <mxCell id="1" parent="0" />
        <mxCell id="DxnIvV2hg2z9Hd538eVF-3" value="" style="edgeStyle=orthogonalEdgeStyle;rounded=0;orthogonalLoop=1;jettySize=auto;html=1;" parent="1" source="DxnIvV2hg2z9Hd538eVF-1" target="DxnIvV2hg2z9Hd538eVF-2" edge="1">
          <mxGeometry relative="1" as="geometry" />
        </mxCell>
        <mxCell id="DxnIvV2hg2z9Hd538eVF-1" value="inicio" style="ellipse;whiteSpace=wrap;html=1;" parent="1" vertex="1">
          <mxGeometry x="40" y="40" width="120" height="80" as="geometry" />
        </mxCell>
        <mxCell id="WnruKDRqM4DlYAUphrk8-2" value="" style="edgeStyle=orthogonalEdgeStyle;rounded=0;orthogonalLoop=1;jettySize=auto;html=1;" parent="1" source="DxnIvV2hg2z9Hd538eVF-2" target="WnruKDRqM4DlYAUphrk8-1" edge="1">
          <mxGeometry relative="1" as="geometry" />
        </mxCell>
        <mxCell id="DxnIvV2hg2z9Hd538eVF-2" value="numi(float)&lt;br&gt;nums(float)&lt;br&gt;vidas(int)&lt;br&gt;reps(char)" style="rounded=0;whiteSpace=wrap;html=1;" parent="1" vertex="1">
          <mxGeometry x="40" y="140" width="120" height="60" as="geometry" />
        </mxCell>
        <mxCell id="DxnIvV2hg2z9Hd538eVF-9" value="" style="edgeStyle=orthogonalEdgeStyle;rounded=0;orthogonalLoop=1;jettySize=auto;html=1;" parent="1" source="DxnIvV2hg2z9Hd538eVF-6" target="DxnIvV2hg2z9Hd538eVF-8" edge="1">
          <mxGeometry relative="1" as="geometry" />
        </mxCell>
        <mxCell id="DxnIvV2hg2z9Hd538eVF-6" value="Pantalla de incio" style="shape=document;whiteSpace=wrap;html=1;boundedLbl=1;" parent="1" vertex="1">
          <mxGeometry x="40" y="380" width="120" height="80" as="geometry" />
        </mxCell>
        <mxCell id="DxnIvV2hg2z9Hd538eVF-11" value="" style="edgeStyle=orthogonalEdgeStyle;rounded=0;orthogonalLoop=1;jettySize=auto;html=1;" parent="1" source="DxnIvV2hg2z9Hd538eVF-8" target="DxnIvV2hg2z9Hd538eVF-10" edge="1">
          <mxGeometry relative="1" as="geometry" />
        </mxCell>
        <mxCell id="DxnIvV2hg2z9Hd538eVF-8" value="&quot;ingresa un numero del 1 al 100&quot;" style="shape=document;whiteSpace=wrap;html=1;boundedLbl=1;" parent="1" vertex="1">
          <mxGeometry x="40" y="480" width="120" height="80" as="geometry" />
        </mxCell>
        <mxCell id="DxnIvV2hg2z9Hd538eVF-13" value="" style="edgeStyle=orthogonalEdgeStyle;rounded=0;orthogonalLoop=1;jettySize=auto;html=1;" parent="1" source="DxnIvV2hg2z9Hd538eVF-10" target="DxnIvV2hg2z9Hd538eVF-12" edge="1">
          <mxGeometry relative="1" as="geometry" />
        </mxCell>
        <mxCell id="DxnIvV2hg2z9Hd538eVF-10" value="numi" style="shape=parallelogram;perimeter=parallelogramPerimeter;whiteSpace=wrap;html=1;fixedSize=1;" parent="1" vertex="1">
          <mxGeometry x="40" y="580" width="120" height="60" as="geometry" />
        </mxCell>
        <mxCell id="DxnIvV2hg2z9Hd538eVF-12" value="1" style="ellipse;whiteSpace=wrap;html=1;aspect=fixed;" parent="1" vertex="1">
          <mxGeometry x="60" y="670" width="80" height="80" as="geometry" />
        </mxCell>
        <mxCell id="WnruKDRqM4DlYAUphrk8-8" value="" style="edgeStyle=orthogonalEdgeStyle;rounded=0;orthogonalLoop=1;jettySize=auto;html=1;" parent="1" source="DxnIvV2hg2z9Hd538eVF-14" target="WnruKDRqM4DlYAUphrk8-7" edge="1">
          <mxGeometry relative="1" as="geometry" />
        </mxCell>
        <mxCell id="DxnIvV2hg2z9Hd538eVF-14" value="1" style="ellipse;whiteSpace=wrap;html=1;aspect=fixed;" parent="1" vertex="1">
          <mxGeometry x="660" y="40" width="80" height="80" as="geometry" />
        </mxCell>
        <mxCell id="WnruKDRqM4DlYAUphrk8-4" value="" style="edgeStyle=orthogonalEdgeStyle;rounded=0;orthogonalLoop=1;jettySize=auto;html=1;" parent="1" source="WnruKDRqM4DlYAUphrk8-1" target="WnruKDRqM4DlYAUphrk8-3" edge="1">
          <mxGeometry relative="1" as="geometry" />
        </mxCell>
        <mxCell id="WnruKDRqM4DlYAUphrk8-1" value="nums=42" style="rounded=0;whiteSpace=wrap;html=1;" parent="1" vertex="1">
          <mxGeometry x="40" y="220" width="120" height="60" as="geometry" />
        </mxCell>
        <mxCell id="WnruKDRqM4DlYAUphrk8-6" value="" style="edgeStyle=orthogonalEdgeStyle;rounded=0;orthogonalLoop=1;jettySize=auto;html=1;" parent="1" source="WnruKDRqM4DlYAUphrk8-3" target="DxnIvV2hg2z9Hd538eVF-6" edge="1">
          <mxGeometry relative="1" as="geometry" />
        </mxCell>
        <mxCell id="WnruKDRqM4DlYAUphrk8-3" value="vidas=5" style="rounded=0;whiteSpace=wrap;html=1;" parent="1" vertex="1">
          <mxGeometry x="40" y="300" width="120" height="60" as="geometry" />
        </mxCell>
        <mxCell id="NHLsWGcrloJafp5NB1YB-93" value="si" style="edgeStyle=orthogonalEdgeStyle;rounded=0;orthogonalLoop=1;jettySize=auto;html=1;entryX=0.5;entryY=0;entryDx=0;entryDy=0;" edge="1" parent="1" source="WnruKDRqM4DlYAUphrk8-7" target="NHLsWGcrloJafp5NB1YB-92">
          <mxGeometry relative="1" as="geometry" />
        </mxCell>
        <mxCell id="NHLsWGcrloJafp5NB1YB-106" value="no" style="edgeStyle=orthogonalEdgeStyle;rounded=0;orthogonalLoop=1;jettySize=auto;html=1;exitX=0;exitY=0.5;exitDx=0;exitDy=0;entryX=0.5;entryY=0;entryDx=0;entryDy=0;" edge="1" parent="1" source="WnruKDRqM4DlYAUphrk8-7" target="NHLsWGcrloJafp5NB1YB-105">
          <mxGeometry x="-0.5802" relative="1" as="geometry">
            <mxPoint as="offset" />
          </mxGeometry>
        </mxCell>
        <mxCell id="WnruKDRqM4DlYAUphrk8-7" value="mientras&lt;br&gt;reps&amp;lt;&amp;gt;&quot;n&quot;" style="rhombus;whiteSpace=wrap;html=1;" parent="1" vertex="1">
          <mxGeometry x="660" y="160" width="80" height="80" as="geometry" />
        </mxCell>
        <mxCell id="NHLsWGcrloJafp5NB1YB-111" value="no" style="edgeStyle=orthogonalEdgeStyle;rounded=0;orthogonalLoop=1;jettySize=auto;html=1;exitX=0;exitY=0.5;exitDx=0;exitDy=0;entryX=0.5;entryY=0;entryDx=0;entryDy=0;" edge="1" parent="1" source="NHLsWGcrloJafp5NB1YB-44" target="NHLsWGcrloJafp5NB1YB-110">
          <mxGeometry x="-0.6291" relative="1" as="geometry">
            <mxPoint as="offset" />
          </mxGeometry>
        </mxCell>
        <mxCell id="NHLsWGcrloJafp5NB1YB-127" value="si" style="edgeStyle=orthogonalEdgeStyle;rounded=0;orthogonalLoop=1;jettySize=auto;html=1;exitX=1;exitY=0.5;exitDx=0;exitDy=0;entryX=0.5;entryY=0;entryDx=0;entryDy=0;" edge="1" parent="1" source="NHLsWGcrloJafp5NB1YB-44" target="NHLsWGcrloJafp5NB1YB-50">
          <mxGeometry relative="1" as="geometry" />
        </mxCell>
        <mxCell id="NHLsWGcrloJafp5NB1YB-44" value="mientras&lt;br&gt;nums&amp;lt;&amp;gt;numi&lt;br&gt;y&lt;br&gt;vidas&amp;lt;&amp;gt;0" style="rhombus;whiteSpace=wrap;html=1;" vertex="1" parent="1">
          <mxGeometry x="870" y="360" width="130" height="80" as="geometry" />
        </mxCell>
        <mxCell id="NHLsWGcrloJafp5NB1YB-49" value="" style="edgeStyle=orthogonalEdgeStyle;rounded=0;orthogonalLoop=1;jettySize=auto;html=1;" edge="1" parent="1" source="NHLsWGcrloJafp5NB1YB-50" target="NHLsWGcrloJafp5NB1YB-53">
          <mxGeometry relative="1" as="geometry" />
        </mxCell>
        <mxCell id="NHLsWGcrloJafp5NB1YB-50" value="vidas=vidas-1" style="rounded=0;whiteSpace=wrap;html=1;" vertex="1" parent="1">
          <mxGeometry x="1050" y="440" width="120" height="60" as="geometry" />
        </mxCell>
        <mxCell id="NHLsWGcrloJafp5NB1YB-51" value="no" style="edgeStyle=orthogonalEdgeStyle;rounded=0;orthogonalLoop=1;jettySize=auto;html=1;entryX=0.5;entryY=0;entryDx=0;entryDy=0;" edge="1" parent="1" source="NHLsWGcrloJafp5NB1YB-53" target="NHLsWGcrloJafp5NB1YB-55">
          <mxGeometry relative="1" as="geometry" />
        </mxCell>
        <mxCell id="NHLsWGcrloJafp5NB1YB-52" value="si" style="edgeStyle=orthogonalEdgeStyle;rounded=0;orthogonalLoop=1;jettySize=auto;html=1;entryX=0.5;entryY=0;entryDx=0;entryDy=0;" edge="1" parent="1" source="NHLsWGcrloJafp5NB1YB-53">
          <mxGeometry relative="1" as="geometry">
            <mxPoint x="1245" y="640" as="targetPoint" />
          </mxGeometry>
        </mxCell>
        <mxCell id="NHLsWGcrloJafp5NB1YB-53" value="si&lt;br&gt;nums&amp;lt;numi" style="rhombus;whiteSpace=wrap;html=1;" vertex="1" parent="1">
          <mxGeometry x="1055" y="540" width="110" height="80" as="geometry" />
        </mxCell>
        <mxCell id="NHLsWGcrloJafp5NB1YB-54" value="" style="edgeStyle=orthogonalEdgeStyle;rounded=0;orthogonalLoop=1;jettySize=auto;html=1;" edge="1" parent="1" source="NHLsWGcrloJafp5NB1YB-55" target="NHLsWGcrloJafp5NB1YB-57">
          <mxGeometry relative="1" as="geometry" />
        </mxCell>
        <mxCell id="NHLsWGcrloJafp5NB1YB-55" value="El numero secreto es mayor al que ingresaste" style="shape=document;whiteSpace=wrap;html=1;boundedLbl=1;" vertex="1" parent="1">
          <mxGeometry x="895" y="640" width="105" height="80" as="geometry" />
        </mxCell>
        <mxCell id="NHLsWGcrloJafp5NB1YB-56" value="" style="edgeStyle=orthogonalEdgeStyle;rounded=0;orthogonalLoop=1;jettySize=auto;html=1;" edge="1" parent="1" source="NHLsWGcrloJafp5NB1YB-57" target="NHLsWGcrloJafp5NB1YB-59">
          <mxGeometry relative="1" as="geometry" />
        </mxCell>
        <mxCell id="NHLsWGcrloJafp5NB1YB-57" value="&lt;span style=&quot;color: rgb(0, 0, 0); font-family: Helvetica; font-size: 12px; font-style: normal; font-variant-ligatures: normal; font-variant-caps: normal; font-weight: 400; letter-spacing: normal; orphans: 2; text-align: center; text-indent: 0px; text-transform: none; widows: 2; word-spacing: 0px; -webkit-text-stroke-width: 0px; background-color: rgb(248, 249, 250); text-decoration-thickness: initial; text-decoration-style: initial; text-decoration-color: initial; float: none; display: inline !important;&quot;&gt;&quot;te quedan &quot;,vidas,&amp;nbsp; &amp;nbsp;&quot; intentos&quot;&lt;/span&gt;" style="shape=document;whiteSpace=wrap;html=1;boundedLbl=1;" vertex="1" parent="1">
          <mxGeometry x="891.25" y="760" width="112.5" height="80" as="geometry" />
        </mxCell>
        <mxCell id="NHLsWGcrloJafp5NB1YB-58" style="edgeStyle=orthogonalEdgeStyle;rounded=0;orthogonalLoop=1;jettySize=auto;html=1;entryX=0.5;entryY=0;entryDx=0;entryDy=0;" edge="1" parent="1" source="NHLsWGcrloJafp5NB1YB-59">
          <mxGeometry relative="1" as="geometry">
            <Array as="points">
              <mxPoint x="948" y="1000" />
              <mxPoint x="1090" y="1000" />
            </Array>
            <mxPoint x="1090" y="1040" as="targetPoint" />
          </mxGeometry>
        </mxCell>
        <mxCell id="NHLsWGcrloJafp5NB1YB-59" value="&lt;span style=&quot;color: rgb(0, 0, 0); font-family: Helvetica; font-size: 12px; font-style: normal; font-variant-ligatures: normal; font-variant-caps: normal; font-weight: 400; letter-spacing: normal; orphans: 2; text-align: center; text-indent: 0px; text-transform: none; widows: 2; word-spacing: 0px; -webkit-text-stroke-width: 0px; text-decoration-thickness: initial; text-decoration-style: initial; text-decoration-color: initial; background-color: rgb(248, 249, 250); float: none; display: inline !important;&quot;&gt;&quot;intentalo de nuevo&quot;&lt;/span&gt;" style="shape=document;whiteSpace=wrap;html=1;boundedLbl=1;" vertex="1" parent="1">
          <mxGeometry x="887.5" y="870" width="120" height="80" as="geometry" />
        </mxCell>
        <mxCell id="NHLsWGcrloJafp5NB1YB-60" value="" style="edgeStyle=orthogonalEdgeStyle;rounded=0;orthogonalLoop=1;jettySize=auto;html=1;" edge="1" parent="1" source="NHLsWGcrloJafp5NB1YB-61" target="NHLsWGcrloJafp5NB1YB-63">
          <mxGeometry relative="1" as="geometry" />
        </mxCell>
        <mxCell id="NHLsWGcrloJafp5NB1YB-61" value="El numero secreto es menor al que ingresaste" style="shape=document;whiteSpace=wrap;html=1;boundedLbl=1;" vertex="1" parent="1">
          <mxGeometry x="1187.5" y="640" width="105" height="80" as="geometry" />
        </mxCell>
        <mxCell id="NHLsWGcrloJafp5NB1YB-62" value="" style="edgeStyle=orthogonalEdgeStyle;rounded=0;orthogonalLoop=1;jettySize=auto;html=1;" edge="1" parent="1" source="NHLsWGcrloJafp5NB1YB-63" target="NHLsWGcrloJafp5NB1YB-65">
          <mxGeometry relative="1" as="geometry" />
        </mxCell>
        <mxCell id="NHLsWGcrloJafp5NB1YB-63" value="&lt;span style=&quot;color: rgb(0, 0, 0); font-family: Helvetica; font-size: 12px; font-style: normal; font-variant-ligatures: normal; font-variant-caps: normal; font-weight: 400; letter-spacing: normal; orphans: 2; text-align: center; text-indent: 0px; text-transform: none; widows: 2; word-spacing: 0px; -webkit-text-stroke-width: 0px; background-color: rgb(248, 249, 250); text-decoration-thickness: initial; text-decoration-style: initial; text-decoration-color: initial; float: none; display: inline !important;&quot;&gt;&quot;te quedan &quot;,vidas,&amp;nbsp; &amp;nbsp;&quot; intentos&quot;&lt;/span&gt;" style="shape=document;whiteSpace=wrap;html=1;boundedLbl=1;" vertex="1" parent="1">
          <mxGeometry x="1183.75" y="760" width="112.5" height="80" as="geometry" />
        </mxCell>
        <mxCell id="NHLsWGcrloJafp5NB1YB-64" style="edgeStyle=orthogonalEdgeStyle;rounded=0;orthogonalLoop=1;jettySize=auto;html=1;entryX=0.5;entryY=0;entryDx=0;entryDy=0;" edge="1" parent="1" source="NHLsWGcrloJafp5NB1YB-65">
          <mxGeometry relative="1" as="geometry">
            <Array as="points">
              <mxPoint x="1240" y="1000" />
              <mxPoint x="1090" y="1000" />
            </Array>
            <mxPoint x="1090" y="1040" as="targetPoint" />
          </mxGeometry>
        </mxCell>
        <mxCell id="NHLsWGcrloJafp5NB1YB-65" value="&lt;span style=&quot;color: rgb(0, 0, 0); font-family: Helvetica; font-size: 12px; font-style: normal; font-variant-ligatures: normal; font-variant-caps: normal; font-weight: 400; letter-spacing: normal; orphans: 2; text-align: center; text-indent: 0px; text-transform: none; widows: 2; word-spacing: 0px; -webkit-text-stroke-width: 0px; text-decoration-thickness: initial; text-decoration-style: initial; text-decoration-color: initial; background-color: rgb(248, 249, 250); float: none; display: inline !important;&quot;&gt;&quot;intentalo de nuevo&quot;&lt;/span&gt;" style="shape=document;whiteSpace=wrap;html=1;boundedLbl=1;" vertex="1" parent="1">
          <mxGeometry x="1180" y="870" width="120" height="80" as="geometry" />
        </mxCell>
        <mxCell id="NHLsWGcrloJafp5NB1YB-128" style="edgeStyle=orthogonalEdgeStyle;rounded=0;orthogonalLoop=1;jettySize=auto;html=1;exitX=1;exitY=0.5;exitDx=0;exitDy=0;" edge="1" parent="1" source="NHLsWGcrloJafp5NB1YB-66">
          <mxGeometry relative="1" as="geometry">
            <mxPoint x="940" y="330" as="targetPoint" />
            <Array as="points">
              <mxPoint x="1360" y="1070" />
              <mxPoint x="1360" y="330" />
            </Array>
          </mxGeometry>
        </mxCell>
        <mxCell id="NHLsWGcrloJafp5NB1YB-66" value="numi" style="shape=parallelogram;perimeter=parallelogramPerimeter;whiteSpace=wrap;html=1;fixedSize=1;" vertex="1" parent="1">
          <mxGeometry x="1030" y="1040" width="120" height="60" as="geometry" />
        </mxCell>
        <mxCell id="NHLsWGcrloJafp5NB1YB-97" value="no" style="edgeStyle=orthogonalEdgeStyle;rounded=0;orthogonalLoop=1;jettySize=auto;html=1;exitX=0;exitY=0.5;exitDx=0;exitDy=0;entryX=0.5;entryY=0;entryDx=0;entryDy=0;" edge="1" parent="1" source="NHLsWGcrloJafp5NB1YB-92" target="NHLsWGcrloJafp5NB1YB-44">
          <mxGeometry x="-0.5862" relative="1" as="geometry">
            <mxPoint as="offset" />
          </mxGeometry>
        </mxCell>
        <mxCell id="NHLsWGcrloJafp5NB1YB-100" value="si" style="edgeStyle=orthogonalEdgeStyle;rounded=0;orthogonalLoop=1;jettySize=auto;html=1;exitX=1;exitY=0.5;exitDx=0;exitDy=0;entryX=0.5;entryY=0;entryDx=0;entryDy=0;" edge="1" parent="1" source="NHLsWGcrloJafp5NB1YB-92" target="NHLsWGcrloJafp5NB1YB-99">
          <mxGeometry x="-0.8621" relative="1" as="geometry">
            <mxPoint as="offset" />
          </mxGeometry>
        </mxCell>
        <mxCell id="NHLsWGcrloJafp5NB1YB-92" value="nums==numi" style="rhombus;whiteSpace=wrap;html=1;" vertex="1" parent="1">
          <mxGeometry x="1000" y="240" width="80" height="80" as="geometry" />
        </mxCell>
        <mxCell id="NHLsWGcrloJafp5NB1YB-104" style="edgeStyle=orthogonalEdgeStyle;rounded=0;orthogonalLoop=1;jettySize=auto;html=1;" edge="1" parent="1" source="NHLsWGcrloJafp5NB1YB-99" target="NHLsWGcrloJafp5NB1YB-101">
          <mxGeometry relative="1" as="geometry">
            <Array as="points">
              <mxPoint x="1500" y="1240" />
              <mxPoint x="1160" y="1240" />
            </Array>
          </mxGeometry>
        </mxCell>
        <mxCell id="NHLsWGcrloJafp5NB1YB-99" value="&quot;Felicidades, ganaste" style="shape=document;whiteSpace=wrap;html=1;boundedLbl=1;" vertex="1" parent="1">
          <mxGeometry x="1440" y="440" width="120" height="80" as="geometry" />
        </mxCell>
        <mxCell id="NHLsWGcrloJafp5NB1YB-108" value="" style="edgeStyle=orthogonalEdgeStyle;rounded=0;orthogonalLoop=1;jettySize=auto;html=1;" edge="1" parent="1" source="NHLsWGcrloJafp5NB1YB-101" target="NHLsWGcrloJafp5NB1YB-107">
          <mxGeometry relative="1" as="geometry" />
        </mxCell>
        <mxCell id="NHLsWGcrloJafp5NB1YB-101" value="&quot;Quieres jugar otra vez s/n&quot;" style="shape=document;whiteSpace=wrap;html=1;boundedLbl=1;" vertex="1" parent="1">
          <mxGeometry x="1100" y="1280" width="120" height="80" as="geometry" />
        </mxCell>
        <mxCell id="NHLsWGcrloJafp5NB1YB-105" value="FIn" style="ellipse;whiteSpace=wrap;html=1;" vertex="1" parent="1">
          <mxGeometry x="260" y="670" width="120" height="80" as="geometry" />
        </mxCell>
        <mxCell id="NHLsWGcrloJafp5NB1YB-109" style="edgeStyle=orthogonalEdgeStyle;rounded=0;orthogonalLoop=1;jettySize=auto;html=1;" edge="1" parent="1" source="NHLsWGcrloJafp5NB1YB-107">
          <mxGeometry relative="1" as="geometry">
            <mxPoint x="700" y="130" as="targetPoint" />
            <Array as="points">
              <mxPoint x="1600" y="1420" />
              <mxPoint x="1600" y="130" />
            </Array>
          </mxGeometry>
        </mxCell>
        <mxCell id="NHLsWGcrloJafp5NB1YB-107" value="reps" style="shape=parallelogram;perimeter=parallelogramPerimeter;whiteSpace=wrap;html=1;fixedSize=1;" vertex="1" parent="1">
          <mxGeometry x="1100" y="1390" width="120" height="60" as="geometry" />
        </mxCell>
        <mxCell id="NHLsWGcrloJafp5NB1YB-113" value="si" style="edgeStyle=orthogonalEdgeStyle;rounded=0;orthogonalLoop=1;jettySize=auto;html=1;exitX=1;exitY=0.5;exitDx=0;exitDy=0;entryX=0.5;entryY=0;entryDx=0;entryDy=0;" edge="1" parent="1" source="NHLsWGcrloJafp5NB1YB-110" target="NHLsWGcrloJafp5NB1YB-112">
          <mxGeometry x="-0.5" relative="1" as="geometry">
            <mxPoint as="offset" />
          </mxGeometry>
        </mxCell>
        <mxCell id="NHLsWGcrloJafp5NB1YB-121" value="no" style="edgeStyle=orthogonalEdgeStyle;rounded=0;orthogonalLoop=1;jettySize=auto;html=1;exitX=0;exitY=0.5;exitDx=0;exitDy=0;entryX=0.5;entryY=0;entryDx=0;entryDy=0;" edge="1" parent="1" source="NHLsWGcrloJafp5NB1YB-110" target="NHLsWGcrloJafp5NB1YB-119">
          <mxGeometry x="-0.5556" relative="1" as="geometry">
            <mxPoint as="offset" />
          </mxGeometry>
        </mxCell>
        <mxCell id="NHLsWGcrloJafp5NB1YB-110" value="nums==numi" style="rhombus;whiteSpace=wrap;html=1;" vertex="1" parent="1">
          <mxGeometry x="555" y="880" width="80" height="80" as="geometry" />
        </mxCell>
        <mxCell id="NHLsWGcrloJafp5NB1YB-123" style="edgeStyle=orthogonalEdgeStyle;rounded=0;orthogonalLoop=1;jettySize=auto;html=1;entryX=0.5;entryY=0;entryDx=0;entryDy=0;" edge="1" parent="1" source="NHLsWGcrloJafp5NB1YB-112" target="NHLsWGcrloJafp5NB1YB-101">
          <mxGeometry relative="1" as="geometry">
            <Array as="points">
              <mxPoint x="715" y="1240" />
              <mxPoint x="1160" y="1240" />
            </Array>
          </mxGeometry>
        </mxCell>
        <mxCell id="NHLsWGcrloJafp5NB1YB-112" value="&quot;Felicidades, ganaste&quot;" style="shape=document;whiteSpace=wrap;html=1;boundedLbl=1;" vertex="1" parent="1">
          <mxGeometry x="655" y="1000" width="120" height="80" as="geometry" />
        </mxCell>
        <mxCell id="NHLsWGcrloJafp5NB1YB-122" style="edgeStyle=orthogonalEdgeStyle;rounded=0;orthogonalLoop=1;jettySize=auto;html=1;entryX=0.5;entryY=0;entryDx=0;entryDy=0;" edge="1" parent="1" source="NHLsWGcrloJafp5NB1YB-119" target="NHLsWGcrloJafp5NB1YB-101">
          <mxGeometry relative="1" as="geometry">
            <Array as="points">
              <mxPoint x="500" y="1240" />
              <mxPoint x="1160" y="1240" />
            </Array>
          </mxGeometry>
        </mxCell>
        <mxCell id="NHLsWGcrloJafp5NB1YB-119" value="No pudiste adivinar el numero y te quedaste sin intentos, has perdido&quot;" style="shape=document;whiteSpace=wrap;html=1;boundedLbl=1;" vertex="1" parent="1">
          <mxGeometry x="440" y="1000" width="120" height="80" as="geometry" />
        </mxCell>
      </root>
    </mxGraphModel>
  </diagram>
</mxfile>
